<mxfile host="app.diagrams.net" agent="Mozilla/5.0 (Windows NT 10.0; Win64; x64) AppleWebKit/537.36 (KHTML, like Gecko) Chrome/127.0.0.0 Safari/537.36" version="24.7.6">
  <diagram name="Page-1" id="faQ0q9WDRmPWhWpRmB0q">
    <mxGraphModel dx="954" dy="592" grid="1" gridSize="10" guides="1" tooltips="1" connect="1" arrows="1" fold="1" page="1" pageScale="1" pageWidth="827" pageHeight="1169" math="0" shadow="0">
      <root>
        <mxCell id="0" />
        <mxCell id="1" parent="0" />
        <mxCell id="JHxSLvHmcsKLVMjuVEuG-3" value="" style="edgeStyle=orthogonalEdgeStyle;rounded=0;orthogonalLoop=1;jettySize=auto;html=1;" edge="1" parent="1" source="JHxSLvHmcsKLVMjuVEuG-1" target="JHxSLvHmcsKLVMjuVEuG-2">
          <mxGeometry relative="1" as="geometry" />
        </mxCell>
        <mxCell id="JHxSLvHmcsKLVMjuVEuG-1" value="Require Developers&lt;div&gt;to sign off commits&lt;/div&gt;" style="rounded=0;whiteSpace=wrap;html=1;" vertex="1" parent="1">
          <mxGeometry x="210" y="130" width="120" height="60" as="geometry" />
        </mxCell>
        <mxCell id="JHxSLvHmcsKLVMjuVEuG-2" value="Sign off?&lt;div&gt;Method for developers to affirm&lt;/div&gt;&lt;div&gt;that their commit&amp;nbsp;&lt;/div&gt;&lt;div&gt;follows repositoryt guidelines&lt;/div&gt;" style="whiteSpace=wrap;html=1;rounded=0;" vertex="1" parent="1">
          <mxGeometry x="210" y="230" width="120" height="110" as="geometry" />
        </mxCell>
      </root>
    </mxGraphModel>
  </diagram>
</mxfile>
